<?xml version="1.0" encoding="utf-8"?>
<svg version="1.1" xmlns="http://www.w3.org/2000/svg" xmlns:xlink="http://www.w3.org/1999/xlink" height="19.19307692307673" width="123.44999999999993">
  <defs>
    <path id="path-0" opacity="1" d="M32.06055221432476,2.7606480505793343 C32.533023510114816,2.7606480505793343 32.937998906506266,2.826377766069328 33.275478403499164,2.957837197049308 C33.61295790049206,3.089296628029288 33.8154455986878,3.286485774499262 34.01793329688354,3.549404636459222 C34.22042099507928,3.8123234984191825 34.28791689447786,4.140972075869136 34.35541279387644,4.46962065331909 C34.42290869327502,4.798269230769044 34.42290869327502,5.258377239198978 34.42290869327502,5.718485247628912 C34.42290869327502,6.178593256058846 34.42290869327502,6.63870126448878 34.35541279387644,6.967349841938734 C34.28791689447786,7.361728134878675 34.1529250956807,7.624646996838642 34.01793329688354,7.887565858798602 C33.88294149808638,8.15048472075857 33.61295790049206,8.347673867228536 33.342974302897744,8.479133298208517 C33.072990705303425,8.610592729188497 32.668015308911976,8.67632244467849 32.19554401312192,8.67632244467849 L30.643138326954613,8.67632244467849 L30.643138326954613,2.7606480505793343 L32.06055221432476,2.7606480505793343ZM21.12621651175519,5.71848524762936 L22.476134499726754,12.488645943098383 L19.708802624385044,12.488645943098383 L21.12621651175519,5.71848524762936 L21.12621651175519,5.71848524762936ZM85.65229633679593,2.8921074815596057 C86.12476763258599,2.8921074815596057 86.59723892837604,3.023566912539586 86.93471842536894,3.3522154899895398 C87.27219792236184,3.6808640674394866 87.47468562055758,4.140972075869421 87.47468562055758,4.798269230769321 L87.47468562055758,14.657726554267846 C87.47468562055758,15.315023709167747 87.27219792236184,15.77513171759768 86.93471842536894,16.103780295047628 C86.59723892837604,16.43242887249758 86.12476763258599,16.563888303477555 85.65229633679593,16.563888303477555 C85.17982504100587,16.563888303477555 84.70735374521581,16.43242887249758 84.36987424822291,16.103780295047628 C84.03239475123002,15.77513171759768 83.82990705303428,15.315023709167747 83.82990705303428,14.657726554267846 L83.82990705303428,4.798269230769321 C83.82990705303428,4.140972075869421 84.03239475123002,3.6808640674394866 84.36987424822291,3.3522154899895398 C84.70735374521581,3.023566912539586 85.17982504100584,2.8921074815596057 85.65229633679593,2.8921074815596057 L85.65229633679593,2.8921074815596057ZM0,0.328648577449826 L2.90232367413887,19.061617492096893 L5.46716785128487,19.061617492096893 L7.559540732640784,6.9016201264487975 L9.719409513395306,19.061617492096893 L12.284253690541277,19.061617492096893 L15.186577364680147,0.328648577449826 L12.284253690541277,0.328648577449826 L10.934335702569712,12.488645943097922 L8.63947512301803,0.328648577449826 L6.547102241662117,0.328648577449826 L4.387233460907595,12.225727081137961 L4.319737561509015,12.225727081137961 L2.9698195735374497,0.328648577449826 L0,0.328648577449826ZM19.978786221979078,0.328648577449826 L15.659048660470035,19.061617492096893 L18.426380535811745,19.061617492096893 L19.168835429196122,15.052104847207517 L22.948605795516528,15.052104847207517 L23.758556588299456,19.061617492096893 L26.525888463641195,19.061617492096893 L22.27364680153073,0.328648577449826 L19.978786221979078,0.328648577449826ZM39.41760524876986,0.328648577449826 L39.41760524876986,19.061617492096893 L47.58460907599783,19.061617492096893 L47.58460907599783,16.366699157007318 L42.11744122471299,16.366699157007318 L42.11744122471299,10.84540305584818 L46.842154182613484,10.84540305584818 L46.842154182613484,8.347673867228572 L42.11744122471299,8.347673867228572 L42.11744122471299,2.8263777660694345 L47.65210497539641,2.8263777660694345 L47.65210497539641,0.328648577449826 L39.41760524876986,0.328648577449826ZM69.72326407873152,0.328648577449826 L69.72326407873152,19.061617492096893 L72.49059595407323,19.061617492096893 L72.49059595407323,10.7139436248682 L75.86539092400213,10.7139436248682 L75.86539092400213,19.061617492096893 L78.63272279934384,19.061617492096893 L78.63272279934384,0.328648577449826 L75.86539092400213,0.328648577449826 L75.86539092400213,8.347673867228572 L72.49059595407323,8.347673867228572 L72.49059595407323,0.328648577449826 L69.72326407873152,0.328648577449826ZM115.21550027337344,0.328648577449826 L115.21550027337344,19.061617492096893 L123.44999999999993,19.061617492096893 L123.44999999999993,16.366699157007318 L117.98283214871515,16.366699157007318 L117.98283214871515,10.84540305584818 L122.70754510661561,10.84540305584818 L122.70754510661561,8.347673867228572 L117.98283214871515,8.347673867228572 L117.98283214871515,2.8263777660694345 L123.44999999999993,2.8263777660694345 L123.44999999999993,0.328648577449826 L115.21550027337344,0.328648577449826ZM108.66839803171098,0.1971891464698956 C107.85844723892802,0.1971891464698956 107.18348824494223,0.2629188619598821 106.57602515035504,0.591567439409836 C105.96856205576782,0.9202160168597899 105.49609075997776,1.2488645943097367 105.09111536358628,1.7089726027396708 C104.6861399671948,2.1690806111695977 104.41615636960051,2.760648050579512 104.21366867140475,3.352215489989419 C104.01118097320901,3.943782929399333 103.94368507381043,4.601080084299234 103.94368507381043,5.324106954689121 C103.94368507381043,6.507241833508942 104.1461727720062,7.493187565858797 104.55114816839765,8.281944151738678 C104.95612356478912,9.070700737618559 105.6985784581735,9.72799789251846 106.91350464734793,10.188105900948393 L108.87088572990672,10.976862486828274 C109.20836522689962,11.108321917808254 109.4783488244939,11.239781348788235 109.68083652268967,11.371240779768215 C109.88332422088538,11.502700210748195 110.01831601968254,11.634159641728175 110.1533078184797,11.831348788198142 C110.22080371787831,12.028537934668115 110.28829961727689,12.291456796628076 110.35579551667544,12.620105374078022 C110.42329141607402,12.883024236037983 110.42329141607402,13.343132244467917 110.42329141607402,13.80324025289785 C110.42329141607402,14.263348261327778 110.42329141607402,14.657726554267718 110.35579551667544,14.986375131717665 C110.28829961727689,15.315023709167619 110.22080371787828,15.57794257112758 110.08581191908112,15.84086143308754 C109.95082012028396,16.038050579557513 109.74833242208823,16.235239726027487 109.4783488244939,16.36669915700746 C109.20836522689959,16.49815858798744 108.87088572990669,16.563888303477434 108.39841443411666,16.563888303477434 C107.72345544013086,16.563888303477434 107.2509841443408,16.36669915700746 106.91350464734793,15.972320864067527 C106.57602515035504,15.57794257112758 106.44103335155788,15.117834562697652 106.44103335155788,14.657726554267718 L106.44103335155788,13.80324025289785 L103.67370147621614,13.80324025289785 L103.67370147621614,14.657726554267725 C103.67370147621614,15.315023709167626 103.74119737561472,15.906591148577533 104.01118097320904,16.432428872497454 C104.28116457080336,16.958266596417374 104.61864406779625,17.41837460484731 105.02361946418773,17.81275289778725 C105.42859486057918,18.20713119072719 105.90106615636924,18.535779768177136 106.50852925095646,18.73296891464711 C107.11599234554367,18.930158061117083 107.72345544013089,19.061617492097056 108.39841443411666,19.061617492097056 C109.2758611262982,19.061617492097056 110.01831601968257,18.930158061117083 110.62577911426979,18.667239199157123 C111.23324220885698,18.404320337197163 111.77320940404562,18.009942044257215 112.11068890103851,17.54983403582729 C112.51566429742999,17.089726027397354 112.78564789502431,16.498158587987447 112.92063969382147,15.84086143308754 C113.12312739201721,15.183564278187646 113.19062329141579,14.460537407797752 113.19062329141579,13.67178082191787 C113.19062329141579,12.948753951527976 113.12312739201721,12.35718651211807 113.05563149261863,11.831348788198142 C112.98813559322005,11.239781348788235 112.85314379442292,10.7796733403583 112.65065609622715,10.385295047418367 C112.44816839803141,9.990916754478427 112.1781848004371,9.662268177028473 111.77320940404562,9.333619599578526 C111.36823400765417,9.070700737618566 110.89576271186411,8.742052160168612 110.28829961727689,8.544863013698645 L108.19592673592095,7.756106427818757 C107.79095133952947,7.624646996838777 107.52096774193515,7.493187565858797 107.31848004373941,7.361728134878817 C107.11599234554367,7.230268703898844 106.98100054674654,7.0988092729188565 106.84600874794936,6.90162012644889 C106.7110169491522,6.704430979978916 106.64352104975362,6.5072418335089495 106.64352104975362,6.244322971548989 C106.57602515035504,5.981404109589029 106.57602515035504,5.718485247629069 106.57602515035504,5.324106954689128 C106.57602515035504,4.995458377239174 106.57602515035504,4.6668097997892275 106.64352104975362,4.403890937829267 C106.7110169491522,4.075242360379313 106.77851284855078,3.812323498419353 106.91350464734793,3.6151343519493864 C107.04849644614512,3.4179452054794126 107.18348824494225,3.220756059009446 107.45347184253657,3.089296628029466 C107.72345544013089,2.9578371970494857 107.99343903772521,2.892107481559492 108.39841443411669,2.892107481559492 C109.07337342810249,2.892107481559492 109.54584472389254,3.0892966280294587 109.88332422088541,3.5494046364593927 C110.22080371787831,4.009512644889327 110.35579551667547,4.535350368809247 110.35579551667547,5.126917808219154 L110.35579551667547,5.718485247629069 L113.12312739201721,5.718485247629069 L113.32561509021292,5.7184852476290615 L113.32561509021292,4.469620653319254 C113.32561509021292,3.943782929399333 113.19062329141579,3.483674920969399 112.98813559322005,2.9578371970494786 C112.78564789502428,2.431999473129558 112.44816839803138,1.971891464699631 112.04319300163993,1.5775131717596906 C111.63821760524846,1.1831348788197502 111.09825041005985,0.8544863013697963 110.55828321487121,0.591567439409836 C109.95082012028399,0.32864857744987575 109.34335702569678,0.1971891464698956 108.66839803171098,0.1971891464698956 L108.66839803171098,0.1971891464698956ZM27.875806451613016,0.3286485774500534 L27.875806451613016,19.06161749209717 L30.643138326954727,19.06161749209717 L30.643138326954727,11.108321917808397 L32.33053581191919,11.108321917808397 L34.89537998906519,19.127347207587157 L37.79770366320406,19.127347207587157 L34.82788408966661,10.582484193888476 C35.70533078184812,10.056646469968555 36.312793876435336,9.465079030558641 36.650273373428206,8.676322444678767 C36.987752870421104,7.887565858798887 37.190240568616844,6.967349841939033 37.190240568616844,5.849944678609205 C37.190240568616844,2.1690806111697682 35.57033898305096,0.3286485774500534 32.33053581191919,0.3286485774500534 L27.875806451613016,0.3286485774500534ZM92.73936577364657,0.32864857744937126 L92.73936577364657,14.854915700737187 C92.73936577364657,15.446483140147102 92.87435757244373,16.03805057955701 93.07684527063947,16.56388830347693 C93.2793329688352,17.08972602739685 93.6168124658281,17.549834035826784 94.02178786221955,17.944212328766724 C94.42676325861103,18.338590621706658 94.89923455440109,18.66723919915661 95.4392017495897,18.864428345626585 C95.97916894477831,19.06161749209656 96.58663203936553,19.193076923076532 97.19409513395274,19.193076923076532 C97.80155822853993,19.193076923076532 98.40902132312715,19.06161749209656 98.94898851831576,18.864428345626585 C99.48895571350437,18.66723919915662 99.96142700929443,18.338590621706672 100.3664024056859,17.944212328766724 C100.77137780207738,17.549834035826784 101.10885729907025,17.08972602739685 101.31134499726602,16.56388830347693 C101.51383269546176,16.03805057955701 101.64882449425889,15.446483140147095 101.64882449425889,14.854915700737187 L101.64882449425889,0.32864857744937126 L98.88149261891718,0.32864857744937126 L98.88149261891718,14.591996838777227 C98.88149261891718,15.249293993677128 98.74650082012005,15.709402002107055 98.40902132312715,16.03805057955701 C98.07154182613425,16.366699157006963 97.6665664297428,16.498158587986936 97.19409513395274,16.498158587986936 C96.72162383816269,16.498158587986936 96.3166484417712,16.366699157006963 95.97916894477831,16.03805057955701 C95.64168944778541,15.775131717597048 95.50669764898828,15.249293993677128 95.50669764898828,14.591996838777227 L95.50669764898828,0.32864857744937126 L92.73936577364657,0.32864857744937126ZM85.71979223619482,0.19718914646966823 C85.1123291416076,0.19718914646966823 84.57236194641897,0.26291886195965475 84.03239475123036,0.4601080084296285 C83.49242755604172,0.6572971548995952 83.01995626025166,0.9202160168595555 82.54748496446163,1.3145943097994959 C82.07501366867157,1.7089726027394363 81.73753417167867,2.2348103266593498 81.46755057408438,2.7606480505792703 C81.19756697649007,3.286485774499191 81.0625751776929,4.009512644889078 81.0625751776929,4.732539515278965 L81.0625751776929,14.59199683877744 C81.0625751776929,15.380753424657314 81.19756697649007,16.038050579557222 81.46755057408438,16.629618018967122 C81.73753417167867,17.221185458377036 82.07501366867157,17.681293466806963 82.54748496446163,18.075671759746896 C83.01995626025166,18.470050052686844 83.42493165664314,18.732968914646804 84.03239475123036,18.93015806111677 C84.63985784581757,19.127347207586737 85.17982504100618,19.19307692307673 85.71979223619482,19.19307692307673 C86.32725533078201,19.19307692307673 86.86722252597065,19.127347207586737 87.40718972115928,18.93015806111677 C87.9471569163479,18.732968914646804 88.41962821213795,18.470050052686837 88.89209950792798,18.075671759746896 C89.36457080371804,17.681293466806963 89.70205030071091,17.221185458377036 89.97203389830523,16.629618018967122 C90.24201749589955,16.038050579557215 90.3770092946967,15.380753424657314 90.3770092946967,14.59199683877744 L90.3770092946967,4.732539515278965 C90.3770092946967,4.009512644889078 90.24201749589955,3.3522154899891774 89.97203389830523,2.7606480505792703 C89.70205030071091,2.1690806111693632 89.36457080371804,1.7089726027394363 88.89209950792798,1.3145943097994959 C88.41962821213795,0.9202160168595555 88.01465281574647,0.6572971548995952 87.40718972115928,0.4601080084296285 C86.79972662657207,0.26291886195965475 86.25975943138346,0.19718914646966823 85.71979223619482,0.19718914646966823 L85.71979223619482,0.19718914646966823Z"/>
    <path id="path-1" opacity="1" d="M51.56686714051398,5.455566385669173 L58.65393657736471,0 L65.74100601421544,5.455566385669173 L65.74100601421544,19.06161749209711 L51.56686714051398,19.06161749209711 L51.56686714051398,5.455566385669173Z"/>
  </defs>
  <g opacity="1">
    <g opacity="1">
      <g opacity="1">
        <g opacity="1">
          <g>
            <use xlink:href="#path-0" fill="rgb(255,255,255)" fill-opacity="1"/>
          </g>
          <g>
            <use xlink:href="#path-1" fill="rgb(255,255,255)" fill-opacity="1"/>
          </g>
        </g>
      </g>
    </g>
  </g>
</svg>