<?xml version="1.0" encoding="utf-8"?>
<svg version="1.1" xmlns="http://www.w3.org/2000/svg" xmlns:xlink="http://www.w3.org/1999/xlink" height="24.89444506413838" width="24.90000000000009">
  <defs>
    <path id="path-0" opacity="1" d="M19.096480758505265,4.314796430563405 C18.274350250976,4.314796430563405 17.607757947573873,4.981388733965517 17.607757947573873,5.803519241494811 C17.607757947573873,6.625649749024092 18.26879531511429,7.292242052426204 19.096480758505265,7.292242052426204 C19.91861126603453,7.292242052426204 20.585203569436658,6.631204684885773 20.585203569436658,5.803519241494811 C20.585203569436658,4.981388733965531 19.91861126603453,4.314796430563405 19.096480758505265,4.314796430563405 L19.096480758505265,4.314796430563405ZM12.452777467930844,8.297685443390606 C14.741411042944833,8.297685443390606 16.602314556609088,10.158588957054846 16.602314556609088,12.447222532068793 C16.602314556609088,14.735856107082725 14.735856107083123,16.596759620746965 12.452777467930844,16.596759620746965 C10.169698828778621,16.596759620746965 8.303240379252657,14.735856107082725 8.303240379252657,12.447222532068793 C8.303240379252657,10.158588957054846 10.164143892916911,8.297685443390606 12.452777467930844,8.297685443390606 L12.452777467930844,8.297685443390606ZM12.452777467931014,6.064601226993517 C8.919838259899791,6.064601226993517 6.07015616285571,8.914283324037584 6.07015616285571,12.447222532068835 C6.07015616285571,15.980161740100073 8.919838259899791,18.829843837144153 12.452777467931014,18.829843837144153 C15.985716675962294,18.829843837144153 18.835398773006318,15.980161740100073 18.835398773006318,12.447222532068835 C18.835398773006318,8.914283324037584 15.985716675962294,6.064601226993517 12.452777467931014,6.064601226993517 L12.452777467931014,6.064601226993517ZM10.251914957058375,2.22784857394025 C11.101866306797945,2.22784857394025 11.880911439222757,2.242805354155095 12.4527774679309,2.242805354155095 C13.013296948450375,2.242805354155095 13.773387891687662,2.2289683994066536 14.604234837960917,2.2289683994066536 C16.45766264118589,2.228968399406668 18.66319576129399,2.2978256712613074 19.79084774121594,2.74274958170669 C20.879615170106035,3.1760345789180633 21.718410485220375,4.0148298940324025 22.157250418293472,5.109152258784221 C22.807177914110525,6.747858337981086 22.65719464584504,10.636313441160127 22.65719464584504,12.447222532069219 C22.65719464584504,14.258131622978311 22.807177914110525,18.152141662019034 22.157250418293472,19.78529280535423 C21.723965421082085,20.874060234244354 20.885170105967745,21.712855549358693 19.79084774121594,22.151695482431748 C18.66962779229175,22.596382716411853 16.49520123657254,22.666596490198188 14.653639978803426,22.666596490198188 C13.803688629063856,22.666596490198188 13.024643496639044,22.651639709983343 12.4527774679309,22.651639709983343 C11.892257987411426,22.651639709983343 11.132167044174139,22.665476664731784 10.301320097900884,22.665476664731784 C8.44789229467591,22.66547666473177 6.2423591745678095,22.59661939287713 5.1147071946458595,22.151695482431748 C4.025939765755766,21.718410485220375 3.1871444506414264,20.879615170106035 2.7483045175683287,19.78529280535423 C2.0983770217512756,18.146586726157338 2.2483602900167625,14.258131622978311 2.2483602900167625,12.447222532069219 C2.2483602900167625,10.636313441160127 2.1039319576129856,6.742303402119404 2.7483045175683287,5.109152258784221 C3.1815895147797164,4.020384829894084 4.020384829894056,3.181589514779745 5.1147071946458595,2.74274958170669 C6.235927143570052,2.298062347726585 8.41035369928926,2.22784857394025 10.251914957058375,2.22784857394025 L10.251914957058375,2.22784857394025ZM12.449999999999989,-2.842170943040401e-14 C10.396062465142222,-2.842170943040401e-14 8.342124930284399,0.029163413273820993 7.31446179587283,0.08749023982150561 C5.325794757389815,0.18192414947014868 3.559325153374232,0.6374288901282625 2.0983770217512188,2.0928220858895656 C0.6374288901282625,3.5482152816508545 0.1874790853318018,5.31468488566648 0.08749023982153403,7.308906860011163 C-0.029163413273863625,9.364233128834371 -0.029163413273863625,15.524656999442328 0.08749023982153403,17.579983268265536 C0.18192414947014868,19.57420524261022 0.6374288901282625,21.340674846625845 2.0983770217512188,22.796068042387148 C3.559325153374232,24.25146123814845 5.320239821528162,24.70696597880655 7.31446179587283,24.806954824316875 C8.342124930284399,24.86528165086456 10.396062465142222,24.89444506413841 12.449999999999989,24.89444506413841 C14.503937534857755,24.89444506413841 16.55787506971558,24.86528165086456 17.585538204127147,24.806954824316875 C19.579760178471872,24.712520914668247 21.346229782487455,24.257016174010133 22.80162297824876,22.796068042387148 C24.25701617401006,21.340674846625845 24.712520914668175,19.57420524261022 24.8125097601785,17.579983268265536 C24.92916341327384,15.524656999442328 24.92916341327384,9.369788064696067 24.8125097601785,7.314461795872845 C24.718075850529885,5.320239821528162 24.26257110987177,3.5537702175125503 22.80162297824876,2.098377021751247 C21.346229782487455,0.6429838259899441 19.579760178471872,0.18747908533183022 17.585538204127147,0.08749023982150561 C16.55787506971558,0.029163413273820993 14.503937534857755,-2.842170943040401e-14 12.449999999999989,-2.842170943040401e-14 L12.449999999999989,-2.842170943040401e-14Z"/>
  </defs>
  <g>
    <use xlink:href="#path-0" fill="rgb(255,255,255)" fill-opacity="1"/>
  </g>
</svg>