<?xml version="1.0" encoding="utf-8"?>
<svg version="1.1" xmlns="http://www.w3.org/2000/svg" xmlns:xlink="http://www.w3.org/1999/xlink" height="20.791931218481295" width="25.59999999999991">
  <defs>
    <path id="path-0" opacity="1" d="M22.968589721053583,5.181720241094706 C22.984839784530394,5.409121129379425 22.984839784530394,5.636572017859458 22.984839784530394,5.863972906144177 C22.984839784530394,12.799999999999994 17.705669162770157,20.79193121848129 8.056881472193245,20.79193121848129 C5.084269860429139,20.79193121848129 2.322859073668255,19.93097785538222 0,18.436622018054734 C0.4223516498111317,18.48532220828985 0.82840323595014,18.501572271766662 1.2670049492380822,18.501572271766662 C3.719764530330194,18.501572271766662 5.977673350286521,17.673169035816525 7.780730393478095,16.259963515482465 C5.47412138328665,16.211213325052032 3.541113832475906,14.700557424052425 2.8751112309032445,12.621349302145703 C3.2000125000488273,12.670049492380821 3.5248637689990963,12.702549619334444 3.8660151016214885,12.702549619334444 C4.3370669416677385,12.702549619334444 4.808168781909302,12.637549365427201 5.246720495001931,12.523898921480157 C2.842661104144937,12.036547017761784 1.0395540607580498,9.924888769096757 1.0395540607580498,7.3096785534318585 C1.7380067890890194,7.699530076289368 2.5502599619529756,7.943181028050897 3.411113324661423,7.9756311548092045 C1.99790780432736,7.033477474521394 1.0720541877116705,5.425371192856235 1.0720541877116705,3.6060640861878546 C1.0720541877116705,2.6314602791417356 1.3319052027546978,1.7380567892843566 1.7867569795194507,0.9583537435693367 C4.369517068426047,4.142116180141345 8.251782233524347,6.221274301852754 12.605049238473581,6.448725190332784 C12.523848921284843,6.058873667475274 12.475098730854413,5.652822081336267 12.475098730854413,5.246720495001947 C12.475098730854413,2.3553092004265856 14.814207867999475,2.842170943040401e-14 17.721819225856343,2.842170943040401e-14 C19.232475126855956,2.842170943040401e-14 20.596930456759587,0.6335024746190683 21.55533420052421,1.6568564720956178 C22.741088832378242,1.4294555838108987 23.878143273997157,0.9908538705229577 24.88529720819221,0.3898515228575383 C24.495395685139385,1.6081562818605 23.666992449189244,2.6315102793370495 22.578688198000762,3.281212817237586 C23.634542322430935,3.1675623732905405 24.657896319907486,2.875111230903266 25.599999999999987,2.469059644764259 C24.885397208582834,3.508613705522306 23.99194371853014,4.434467322137992 22.968589721053583,5.181720241094706Z"/>
  </defs>
  <g>
    <use xlink:href="#path-0" fill="rgb(255,255,255)" fill-opacity="1"/>
  </g>
</svg>