<?xml version="1.0" encoding="utf-8"?>
<svg version="1.1" xmlns="http://www.w3.org/2000/svg" xmlns:xlink="http://www.w3.org/1999/xlink" height="31.000020000000006" width="32.00003305884593">
  <defs>
    <ellipse id="ellipse-0" opacity="1" rx="13.000009999999975" ry="13.00001" cx="13.000009999999975" cy="18.00001"/>
    <filter id="filter-1" filterUnits="userSpaceOnUse" x="-50%" y="-50%" width="200%" height="200%">
      <feOffset in="SourceAlpha" result="shadow-1-feOffset-shadow" dx="0" dy="1"/>
      <feGaussianBlur in="shadow-1-feOffset-shadow" result="shadow-1-feGaussianBlur-shadow" stdDeviation="2"/>
      <feColorMatrix in="shadow-1-feGaussianBlur-shadow" result="shadow-1-feColorMatrix-shadow" type="matrix" values="0 0 0 0 0.06666666666666667  0 0 0 0 0.22745098039215686  0 0 0 0 0.4235294117647059  0 0 0 1 0"/>
    </filter>
    <linearGradient id="linearGradient-2" x1="0.11" y1="0.27" x2="0.99" y2="0.71">
      <stop offset="0" stop-color="rgb(66,169,255)" stop-opacity="1"/>
      <stop offset="1" stop-color="rgb(31,191,255)" stop-opacity="1"/>
    </linearGradient>
    <linearGradient id="linearGradient-3" x1="0.01" y1="0.28" x2="1.02" y2="0.5">
      <stop offset="0" stop-color="rgb(255,255,255)" stop-opacity="0"/>
      <stop offset="1" stop-color="rgb(255,255,255)" stop-opacity="0.3"/>
    </linearGradient>
    <mask id="mask-4" maskUnits="userSpaceOnUse" maskContentUnits="userSpaceOnUse">
      <rect opacity="1" x="0" y="0" width="32.00003305884593" height="31.000020000000006" fill="black"/>
      <use xlink:href="#ellipse-0" fill="white"/>
    </mask>
    <path id="path-5" opacity="1" d="M19.0520947702405,15.374349871054179 L18.094017778788157,19.538769291992544 L9.762273940929845,19.538769291992544 L8.899784274386548,15.374349871054179 L19.0520947702405,15.374349871054179ZM10.396400805312624,23.494967741883983 C10.760954885383853,23.494967741883983 11.057523513617753,23.77518111367037 11.057523513617753,24.119630655024736 C11.057523513617753,24.4640801963791 10.760954885383853,24.744293568165496 10.396400805312624,24.744293568165496 C10.031846725241166,24.744293568165496 9.735278097007267,24.4640801963791 9.735278097007267,24.119630655024736 C9.735278097007267,23.77518111367037 10.031846725241166,23.494967741883983 10.396400805312624,23.494967741883983 L10.396400805312624,23.494967741883983ZM17.448376360569,23.494967741883983 C17.81293044064023,23.494967741883983 18.10949906887413,23.77518111367037 18.10949906887413,24.119630655024736 C18.10949906887413,24.4640801963791 17.81293044064023,24.744293568165496 17.448376360569,24.744293568165496 C17.083822280497543,24.744293568165496 16.787253652263644,24.4640801963791 16.787253652263644,24.119630655024736 C16.787253652263644,23.77518111367037 17.083822280497543,23.494967741883983 17.448376360569,23.494967741883983 L17.448376360569,23.494967741883983ZM4.997232020818728,12.459256276397326 C4.814679512987823,12.459256276397326 4.66667066666605,12.599102686076712 4.66667066666605,12.771587732967703 L4.66667066666605,13.396250646108456 C4.66667066666605,13.568735692999446 4.814679512987823,13.708582102678832 4.997232020818728,13.708582102678832 L7.207585608919317,13.708582102678832 L9.124676182327676,22.966633055473807 C8.820614830066233,23.265950701353752 8.633406916497734,23.672007622516624 8.633406916497734,24.119630655024736 C8.633406916497734,25.03960296035278 9.422732336655145,25.785398423400082 10.396400805311941,25.785398423400082 C11.370069273968511,25.785398423400082 12.159394694125922,25.03960296035278 12.159394694125922,24.119630655024736 L11.922960685568341,23.286746770837063 L15.92184402709131,23.286746770837063 L15.68541001853373,24.119630655024736 C15.68541001853373,25.03960296035278 16.47473543869114,25.785398423400082 17.44840390734771,25.785398423400082 C18.42207237600428,25.785398423400082 19.21139779616192,25.03960296035278 19.21139779616192,24.119630655024736 C19.21139779616192,23.647593713661372 19.003254330163827,23.22178182787043 18.697898279265246,22.794850754360098 C18.78753549979956,22.405477538502367 18.473612400472575,22.037420944555556 18.051871206133,22.037420944555556 L10.279602460178012,22.037420944555556 L10.020938200553474,20.788095118274043 L18.626689854224878,20.788095118274043 C18.93769299492351,20.788095118274043 19.20665975008569,20.583283765628025 19.272716927357123,20.296121018932944 L20.51827210980423,14.882375771713072 C20.607854236779758,14.493028583476715 20.293931137452773,14.125024044772672 19.872245036671984,14.125024044772672 L8.641120014761327,14.125024044772672 L8.400746816733317,12.963983910215056 C8.340033714687252,12.670808782980998 8.068091907337703,12.459256276397326 7.751909972090743,12.459256276397326 L4.997232020818728,12.459256276397326Z"/>
  </defs>
  <g opacity="1">
    <g opacity="1">
      <g opacity="1">
        <use xlink:href="#ellipse-0" fill="black" filter="url(#filter-1)" stroke="black" stroke-opacity="1" stroke-width="0.5"/>
        <use xlink:href="#ellipse-0" fill="url(#linearGradient-2)"/>
        <use xlink:href="#ellipse-0" fill-opacity="0" stroke="url(#linearGradient-3)" stroke-opacity="0.3" stroke-width="1" mask="url(#mask-4)"/>
      </g>
      <g opacity="1">
        <g>
          <use xlink:href="#path-5" fill="rgb(255,255,255)" fill-opacity="1"/>
        </g>
      </g>
    </g>
  </g>
</svg>