<?xml version="1.0" encoding="utf-8"?>
<svg version="1.1" xmlns="http://www.w3.org/2000/svg" xmlns:xlink="http://www.w3.org/1999/xlink" height="28.790392746985418" width="185.18000000000006">
  <defs>
    <path id="path-0" opacity="1" d="M48.092126845270656,4.141083888264731 C48.80085292509568,4.141083888264731 49.40833242208856,4.239681123699619 49.914565336249325,4.436875594569386 C50.42079825041006,4.634070065439154 50.7245379989065,4.929861771743802 51.02827774740297,5.3242507134833446 C51.33201749589941,5.71863965522288 51.433264078731554,6.211625832397303 51.5345106615637,6.704612009571726 C51.63575724439585,7.1975981867461485 51.63575724439585,7.887778834790332 51.63575724439585,8.577959482834522 C51.63575724439585,9.268140130878713 51.63575724439585,9.958320778922904 51.5345106615637,10.451306956097326 C51.433264078731554,11.04289036870663 51.23077091306726,11.437279310446172 51.02827774740297,11.831668252185708 C50.825784581738645,12.226057193925243 50.42079825041006,12.521848900229898 50.01581191908147,12.719043371099666 C49.610825587752856,12.916237841969433 49.003346090759976,13.01483507740432 48.29462001093495,13.01483507740432 L45.96594860579552,13.01483507740432 L45.96594860579552,4.141083888264731 L48.092126845270656,4.141083888264731ZM31.690180426462746,8.577959482835205 L33.71511208310574,18.73347473262828 L29.564002186987636,18.73347473262828 L31.690180426462746,8.577959482835205 L31.690180426462746,8.577959482835205ZM128.4819136139966,4.3382783591349465 C129.1906396938217,4.3382783591349465 129.8993657736467,4.535472830004714 130.40559868780747,5.02845900717913 C130.91183160196823,5.521445184353553 131.2155713504647,6.211625832397736 131.2155713504647,7.197598186746575 L131.2155713504647,21.987183501979118 C131.2155713504647,22.97315585632795 130.91183160196823,23.66333650437214 130.40559868780747,24.156322681546555 C129.8993657736467,24.64930885872098 129.19063969382165,24.84650332959074 128.4819136139966,24.84650332959074 C127.77318753417154,24.84650332959074 127.06446145434649,24.64930885872098 126.55822854018572,24.156322681546555 C126.05199562602502,23.66333650437214 125.74825587752855,22.97315585632795 125.74825587752855,21.987183501979118 L125.74825587752855,7.197598186746575 C125.74825587752855,6.211625832397736 126.05199562602502,5.521445184353553 126.55822854018572,5.02845900717913 C127.06446145434649,4.535472830004714 127.77318753417154,4.3382783591349465 128.4819136139966,4.3382783591349465 L128.4819136139966,4.3382783591349465ZM0,0.492986177174231 L4.353603061782394,28.59319827611587 L8.200973209404054,28.59319827611587 L11.33961727720066,10.352709720662524 L14.579507927829411,28.59319827611587 L18.42687807545107,28.59319827611587 L22.780481137233465,0.492986177174231 L18.42687807545107,0.492986177174231 L16.40194641880811,18.733474732627577 L12.959562602515035,0.492986177174231 L9.82091853471843,0.492986177174231 L6.5810278840896785,18.33908579088805 L6.479781301257532,18.33908579088805 L4.454849644614541,0.492986177174231 L0,0.492986177174231ZM29.968988518315797,0.492986177174231 L23.489207217058265,28.59319827611587 L27.640317113176366,28.59319827611587 L28.754029524330008,22.578766914588016 L34.423838162930366,22.578766914588016 L35.638797156916155,28.59319827611587 L39.789907053034256,28.59319827611587 L33.41137233460887,0.492986177174231 L29.968988518315797,0.492986177174231ZM59.12800437397493,0.492986177174231 L59.12800437397493,28.59319827611587 L71.37884089666491,28.59319827611587 L71.37884089666491,24.55071162328567 L63.177867687260886,24.55071162328567 L63.177867687260886,16.268543846755506 L70.26512848551127,16.268543846755506 L70.26512848551127,12.521848900229955 L63.177867687260886,12.521848900229955 L63.177867687260886,4.239681123699782 L71.48008747949706,4.239681123699782 L71.48008747949706,0.492986177174231 L59.12800437397493,0.492986177174231ZM104.58772006560963,0.492986177174231 L104.58772006560963,28.59319827611587 L108.7388299617277,28.59319827611587 L108.7388299617277,16.071349375885738 L113.80115910333512,16.071349375885738 L113.80115910333512,28.59319827611587 L117.95226899945322,28.59319827611587 L117.95226899945322,0.492986177174231 L113.80115910333512,0.492986177174231 L113.80115910333512,12.521848900229955 L108.7388299617277,12.521848900229955 L108.7388299617277,0.492986177174231 L104.58772006560963,0.492986177174231ZM172.827916894478,0.492986177174231 L172.827916894478,28.59319827611587 L185.18000000000006,28.59319827611587 L185.18000000000006,24.55071162328568 L176.97902679059604,24.55071162328568 L176.97902679059604,16.268543846755506 L184.06628758884642,16.268543846755506 L184.06628758884642,12.521848900229955 L176.97902679059604,12.521848900229955 L176.97902679059604,4.239681123699782 L185.18000000000006,4.239681123699782 L185.18000000000006,0.492986177174231 L172.827916894478,0.492986177174231ZM163.006998359759,0.29579170630454144 C161.79203936577323,0.29579170630454144 160.7795735374517,0.3943889417394253 159.86835429196236,0.887375118913841 C158.95713504647307,1.3803612960882603 158.24840896664801,1.8733474732626796 157.64092946965513,2.5635281213068595 C157.0334499726622,3.25370876935105 156.6284636413336,4.141083888265001 156.32472389283714,5.028459007178952 C156.02098414434067,5.9158341260929035 155.91973756150855,6.901806480441742 155.91973756150855,7.986376070225461 C155.91973756150855,9.761126308053363 156.22347731000502,11.24008483957661 156.8309568069979,12.423251664795217 C157.43843630399078,13.606418490013823 158.55214871514443,14.592390844362654 160.37458720612312,15.282571492406845 L163.31073810825546,16.465738317625444 C163.81697102241623,16.662932788495212 164.2219573537448,16.860127259364972 164.52569710224128,17.057321730234747 C164.8294368507377,17.254516201104508 165.03193001640204,17.451710671974276 165.23442318206628,17.747502378278924 C165.33566976489846,18.04329408458358 165.43691634773063,18.437683026323114 165.53816293056275,18.93066920349753 C165.63940951339492,19.325058145237065 165.63940951339492,20.015238793281256 165.63940951339492,20.705419441325432 C165.63940951339492,21.395600089369623 165.63940951339492,21.98718350197892 165.53816293056275,22.480169679153335 C165.43691634773063,22.973155856327757 165.33566976489846,23.367544798067293 165.13317659923416,23.761933739806828 C164.93068343356987,24.057725446111476 164.6269436850734,24.35351715241613 164.2219573537448,24.550711623285892 C163.81697102241623,24.74790609415566 163.31073810825546,24.846503329590547 162.6020120284304,24.846503329590547 C161.58954620010894,24.846503329590547 160.8808201202839,24.5507116232859 160.37458720612312,23.959128210676596 C159.86835429196236,23.367544798067293 159.66586112629813,22.67736415002311 159.66586112629813,21.987183501978926 L159.66586112629813,20.70541944132544 L155.51475123017997,20.70541944132544 L155.51475123017997,21.987183501978933 C155.51475123017997,22.973155856327764 155.6159978130121,23.860530975241716 156.02098414434073,24.649308858720786 C156.42597047566932,25.438086742199857 156.93220338983008,26.128267390244034 157.53968288682296,26.719850802853344 C158.14716238381584,27.31143421546264 158.8558884636409,27.804420392637056 159.76710770913024,28.10021209894171 C160.6783269546196,28.396003805246366 161.58954620010894,28.593198276116127 162.60201202843047,28.593198276116127 C163.9182176052484,28.593198276116127 165.03193001640204,28.39600380524636 165.9431492618914,28.001614863506823 C166.85436850738074,27.607225921767288 167.66434117003791,27.015642509157985 168.17057408419868,26.32546186111381 C168.77805358119156,25.635281213069618 169.1830399125202,24.747906094155667 169.3855330781845,23.761933739806835 C169.6892728266809,22.775961385457997 169.79051940951308,21.691391795674278 169.79051940951308,20.50822497045567 C169.79051940951308,19.423655380671953 169.6892728266809,18.536280261758 169.5880262438488,17.74750237827893 C169.4867796610166,16.860127259364972 169.28428649535238,16.169946611320796 168.9805467468559,15.578363198711493 C168.67680699835944,14.986779786102197 168.27182066703085,14.493793608927774 167.66434117003791,14.000807431753358 C167.05686167304503,13.606418490013823 166.34813559321998,13.113432312839407 165.43691634773063,12.81764060653476 L162.298272279934,11.634473781316153 C161.69079278294112,11.437279310446385 161.28580645161253,11.240084839576618 160.98206670311606,11.04289036870685 C160.67832695461965,10.84569589783709 160.47583378895536,10.648501426967321 160.273340623291,10.352709720662666 C160.0708474576267,10.056918014358018 159.96960087479454,9.761126308053363 159.96960087479454,9.366737366313835 C159.86835429196242,8.9723484245743 159.86835429196242,8.577959482834764 159.86835429196242,7.986376070225461 C159.86835429196242,7.493389893051045 159.86835429196242,7.0004037158766295 159.96960087479454,6.606014774137094 C160.0708474576267,6.113028596962678 160.17209404045883,5.718639655223143 160.37458720612318,5.422847948918488 C160.57708037178747,5.12705624261384 160.77957353745177,4.831264536309192 161.18455986878035,4.634070065439424 C161.589546200109,4.436875594569656 161.99453253143759,4.338278359134769 162.60201202843047,4.338278359134769 C163.614477856752,4.338278359134769 164.323203936577,4.634070065439417 164.82943685073775,5.3242507134836075 C165.3356697648985,6.014431361527791 165.5381629305628,6.803209245006862 165.5381629305628,7.690584363920813 L165.5381629305628,8.577959482834764 L169.6892728266809,8.577959482834764 L169.99301257517737,8.577959482834757 L169.99301257517737,6.704612009571974 C169.99301257517737,5.9158341260929035 169.79051940951308,5.22565347804872 169.4867796610166,4.436875594569649 C169.18303991252014,3.6480977110905783 168.67680699835938,2.957917063046395 168.0693275013665,2.366333650437099 C167.46184800437362,1.7747502378277957 166.65187534171645,1.2817640606533764 165.84190267905922,0.887375118913841 C164.93068343356987,0.49298617717430915 164.01946418808052,0.29579170630454144 163.006998359759,0.29579170630454144 L163.006998359759,0.29579170630454144ZM87.98328048113734,0 L77.35238928376174,8.183570541095328 L77.35238928376174,28.593198276116198 L98.61417167851295,28.593198276116198 L98.61417167851295,8.183570541095328 L87.98328048113734,0 L87.98328048113734,0ZM41.814838709677616,0.49298617717458626 L41.814838709677616,28.593198276116304 L45.96594860579572,28.593198276116304 L45.96594860579572,16.662932788495432 L48.49711317659944,16.662932788495432 L52.3444833242211,28.691795511551184 L56.698086386003496,28.691795511551184 L52.243236741388955,15.874154905016368 C53.55944231820689,15.085377021537298 54.47066156369621,14.198001902623353 54.97689447785697,13.014835077404754 C55.48312739201771,11.831668252186155 55.78686714051415,10.451306956097795 55.78686714051415,8.775153953704773 C55.78686714051415,3.253708769351313 53.35694915254257,0.49298617717458626 48.49711317659944,0.49298617717458626 L41.814838709677616,0.49298617717458626ZM139.11280481137203,0.49298617717354887 L139.11280481137203,22.28297520828282 C139.11280481137203,23.170350327196772 139.31529797703632,24.057725446110723 139.6190377255328,24.846503329589794 C139.9227774740292,25.635281213068865 140.42901038818997,26.32546186111304 141.03648988518285,26.91704527372235 C141.64396938217573,27.508628686331647 142.35269546200078,28.001614863506063 143.16266812465796,28.29740656981072 C143.97264078731513,28.593198276115373 144.88386003280448,28.790392746985134 145.79507927829383,28.790392746985134 C146.70629852378318,28.790392746985134 147.61751776927252,28.593198276115366 148.4274904319297,28.29740656981072 C149.23746309458687,28.00161486350607 149.94618917441193,27.508628686331647 150.5536686714048,26.91704527372235 C151.1611481683977,26.32546186111304 151.66738108255845,25.635281213068865 151.97112083105486,24.846503329589794 C152.27486057955133,24.057725446110723 152.47735374521562,23.170350327196772 152.47735374521562,22.28297520828282 L152.47735374521562,0.49298617717354887 L148.32624384909752,0.49298617717354887 L148.32624384909752,21.888586266543285 C148.32624384909752,22.874558620892117 148.1237506834333,23.5647392689363 147.61751776927252,24.057725446110716 C147.11128485511176,24.55071162328514 146.50380535811888,24.7479060941549 145.79507927829383,24.7479060941549 C145.08635319846877,24.7479060941549 144.4788737014759,24.55071162328514 143.97264078731513,24.057725446110716 C143.46640787315442,23.663336504371188 143.26391470749013,22.874558620892117 143.26391470749013,21.888586266543285 L143.26391470749013,0.49298617717354887 L139.11280481137203,0.49298617717354887ZM128.58316019682917,0.29579170630419327 C127.67194095133982,0.29579170630419327 126.86196828868265,0.3943889417390771 126.05199562602542,0.6901806480437251 C125.24202296336824,0.9859723543483767 124.53329688354319,1.3803612960879086 123.82457080371819,1.9719447086972082 C123.11584472389313,2.563528121306504 122.60961180973237,3.352306004785568 122.20462547840378,4.141083888264639 C121.7996391470752,4.9298617717437025 121.5971459814109,6.014431361527414 121.5971459814109,7.099000951311133 L121.5971459814109,21.888586266543598 C121.5971459814109,23.071753091762204 121.7996391470752,24.057725446111036 122.20462547840378,24.94510056502498 C122.60961180973237,25.832475683938924 123.11584472389313,26.522656331983107 123.82457080371819,27.11423974459241 C124.53329688354319,27.705823157201706 125.14077638053612,28.100212098941242 126.05199562602542,28.39600380524589 C126.96321487151477,28.691795511550538 127.773187534172,28.790392746985418 128.58316019682917,28.790392746985418 C129.49437944231852,28.790392746985418 130.3043521049757,28.691795511550538 131.11432476763287,28.39600380524589 C131.92429743029004,28.100212098941242 132.6330235101151,27.705823157201706 133.34174958994015,27.11423974459241 C134.05047566976515,26.522656331983114 134.5567085839259,25.832475683938924 134.9616949152545,24.94510056502498 C135.36668124658314,24.057725446111036 135.56917441224743,23.071753091762197 135.56917441224743,21.888586266543598 L135.56917441224743,7.099000951311133 C135.56917441224743,6.014431361527414 135.36668124658314,5.028459007178583 134.9616949152545,4.141083888264639 C134.5567085839259,3.2537087693506876 134.05047566976515,2.563528121306504 133.34174958994015,1.9719447086972082 C132.6330235101151,1.3803612960879086 132.02554401312221,0.9859723543483767 131.11432476763287,0.6901806480437251 C130.20310552214352,0.3943889417390771 129.39313285948634,0.29579170630419327 128.58316019682917,0.29579170630419327 L128.58316019682917,0.29579170630419327Z"/>
  </defs>
  <g>
    <use xlink:href="#path-0" fill="rgb(255,255,255)" fill-opacity="1"/>
  </g>
</svg>