<?xml version="1.0" encoding="utf-8"?>
<svg version="1.1" xmlns="http://www.w3.org/2000/svg" xmlns:xlink="http://www.w3.org/1999/xlink" height="13.326142147002756" width="15.866666666666333">
  <defs>
    <path id="path-0" opacity="1" d="M14.38542410357445,2.9150935946568524 L13.427347112122106,7.079513015595218 L5.0956032742637944,7.079513015595218 L4.233113607720497,2.9150935946568524 L14.38542410357445,2.9150935946568524ZM5.729730138646573,11.035711465486656 C6.094284218717803,11.035711465486656 6.390852846951702,11.315924837273045 6.390852846951702,11.66037437862741 C6.390852846951702,12.004823919981774 6.094284218717803,12.28503729176817 5.729730138646573,12.28503729176817 C5.365176058575116,12.28503729176817 5.068607430341217,12.004823919981774 5.068607430341217,11.66037437862741 C5.068607430341217,11.315924837273045 5.365176058575116,11.035711465486656 5.729730138646573,11.035711465486656 L5.729730138646573,11.035711465486656ZM12.78170569390295,11.035711465486656 C13.14625977397418,11.035711465486656 13.442828402208079,11.315924837273045 13.442828402208079,11.66037437862741 C13.442828402208079,12.004823919981774 13.14625977397418,12.28503729176817 12.78170569390295,12.28503729176817 C12.417151613831493,12.28503729176817 12.120582985597594,12.004823919981774 12.120582985597594,11.66037437862741 C12.120582985597594,11.315924837273045 12.417151613831493,11.035711465486656 12.78170569390295,11.035711465486656 L12.78170569390295,11.035711465486656ZM0.3305613541526782,0 C0.14800884632177258,0 0,0.13984640967938589 0,0.31233145657037653 L0,0.9369943697111296 C0,1.1094794166021202 0.14800884632177258,1.2493258262815061 0.3305613541526782,1.2493258262815061 L2.5409149422532664,1.2493258262815061 L4.458005515661625,10.50737677907648 C4.153944163400183,10.806694424956426 3.9667362498316834,11.212751346119298 3.9667362498316834,11.66037437862741 C3.9667362498316834,12.580346683955455 4.756061669989094,13.326142147002756 5.729730138645891,13.326142147002756 C6.703398607302461,13.326142147002756 7.492724027459872,12.580346683955455 7.492724027459872,11.66037437862741 L7.256290018902291,10.827490494439736 L11.25517336042526,10.827490494439736 L11.01873935186768,11.66037437862741 C11.01873935186768,12.580346683955455 11.80806477202509,13.326142147002756 12.78173324068166,13.326142147002756 C13.75540170933823,13.326142147002756 14.544727129495868,12.580346683955455 14.544727129495868,11.66037437862741 C14.544727129495868,11.188337437264046 14.336583663497777,10.762525551473104 14.031227612599196,10.335594477962772 C14.12086483313351,9.946221262105041 13.806941733806525,9.57816466815823 13.38520053946695,9.57816466815823 L5.612931793511962,9.57816466815823 L5.354267533887423,8.328838841876717 L13.960019187558828,8.328838841876717 C14.271022328257459,8.328838841876717 14.539989083419641,8.124027489230699 14.606046260691073,7.836864742535617 L15.851601443138179,2.4231194953157456 C15.941183570113708,2.0337723070793885 15.627260470786723,1.6657677683753462 15.205574370005934,1.6657677683753462 L3.974449348095277,1.6657677683753462 L3.734076150067267,0.5047276338177298 C3.6733630480212014,0.21155250658367208 3.4014212406716524,0 3.085239305424693,0 L0.3305613541526782,0Z"/>
  </defs>
  <g>
    <use xlink:href="#path-0" fill="rgb(255,255,255)" fill-opacity="1"/>
  </g>
</svg>